<svg width="1047" height="178" viewBox="0 0 1047 178" fill="none" xmlns="http://www.w3.org/2000/svg">
<path d="M89 24C124.9 24 154 53.1001 154 89.0001C154 124.9 124.9 154 89 154C78.955 154.017 69.0441 151.693 60.0533 147.213C58.6533 146.513 56.5665 146.447 53.3198 147.247C51.6799 147.667 50.0585 148.156 48.4599 148.713L47.8865 148.913C46.4132 149.407 44.82 149.94 43.3267 150.34C33.82 152.887 25.1134 144.18 27.66 134.667C28.06 133.18 28.5933 131.58 29.0866 130.113L29.2866 129.54C29.8438 127.941 30.3331 126.32 30.7532 124.68C31.5466 121.433 31.4798 119.347 30.7865 117.947C26.4399 109.22 24 99.3867 24 89.0001C24 71.761 30.8481 55.2279 43.038 43.038C55.2278 30.8481 71.7609 24 89 24ZM91.956 59.7847C91.4099 59.6135 90.8265 59.6008 90.274 59.7483C89.7216 59.8958 89.2229 60.1972 88.8364 60.6173L61.8743 89.9646C61.5313 90.3374 61.2885 90.791 61.1685 91.2829C61.0484 91.7748 61.0551 92.2892 61.1877 92.7783C61.3203 93.2675 61.5746 93.7154 61.9271 94.0806C62.2796 94.4458 62.7188 94.7163 63.2038 94.867L80.4716 100.257L70.498 116.617C68.1038 120.546 72.6202 125.046 76.5562 122.65L114.165 99.7221C114.905 99.2705 115.499 98.6155 115.875 97.8354C116.251 97.0552 116.394 96.183 116.286 95.3232C116.178 94.4634 115.824 93.6524 115.267 92.9873C114.709 92.3223 113.971 91.8313 113.142 91.5732L104.542 88.889L120.896 73.5071C121.278 73.1475 121.559 72.6941 121.711 72.1922C121.863 71.6902 121.88 71.157 121.762 70.6458C121.643 70.1346 121.392 69.6631 121.034 69.2781C120.676 68.8932 120.224 68.6082 119.722 68.4516L91.956 59.7847Z" fill="white"/>
<path d="M1022.38 117.711C1016.79 117.711 1011.98 116.527 1007.96 114.16C1003.96 111.768 1000.88 108.454 998.726 104.216C996.595 99.9787 995.53 95.1018 995.53 89.5857C995.53 83.9985 996.607 79.098 998.761 74.884C1000.94 70.6463 1004.03 67.3437 1008.03 64.9763C1012.03 62.5852 1016.79 61.3896 1022.31 61.3896C1027.06 61.3896 1031.23 62.2538 1034.81 63.982C1038.38 65.7102 1041.21 68.1368 1043.29 71.2618C1045.38 74.3868 1046.52 78.0563 1046.74 82.2703H1032.46C1032.06 79.5478 1030.99 77.3579 1029.27 75.7007C1027.56 74.0199 1025.32 73.1794 1022.55 73.1794C1020.21 73.1794 1018.16 73.8186 1016.41 75.097C1014.68 76.3518 1013.33 78.1865 1012.36 80.6013C1011.39 83.0161 1010.91 85.9398 1010.91 89.3726C1010.91 92.8527 1011.38 95.812 1012.33 98.2504C1013.3 100.689 1014.66 102.547 1016.41 103.826C1018.16 105.104 1020.21 105.743 1022.55 105.743C1024.28 105.743 1025.83 105.388 1027.21 104.678C1028.6 103.968 1029.75 102.938 1030.65 101.589C1031.57 100.215 1032.18 98.57 1032.46 96.6524H1046.74C1046.5 100.819 1045.36 104.489 1043.33 107.661C1041.32 110.81 1038.53 113.272 1034.98 115.047C1031.43 116.823 1027.23 117.711 1022.38 117.711Z" fill="white"/>
<path d="M970.485 116.646V62.1003H985.613V116.646H970.485ZM978.085 55.0691C975.836 55.0691 973.906 54.3233 972.297 52.8319C970.71 51.3167 969.917 49.5056 969.917 47.3986C969.917 45.3153 970.71 43.5279 972.297 42.0364C973.906 40.5212 975.836 39.7637 978.085 39.7637C980.334 39.7637 982.252 40.5212 983.838 42.0364C985.448 43.5279 986.252 45.3153 986.252 47.3986C986.252 49.5056 985.448 51.3167 983.838 52.8319C982.252 54.3233 980.334 55.0691 978.085 55.0691Z" fill="white"/>
<path d="M931.778 138.236C926.877 138.236 922.675 137.562 919.172 136.212C915.691 134.886 912.921 133.075 910.862 130.779C908.802 128.482 907.465 125.902 906.849 123.037L920.841 121.155C921.267 122.244 921.941 123.262 922.865 124.209C923.788 125.156 925.007 125.914 926.522 126.482C928.061 127.074 929.931 127.37 932.133 127.37C935.424 127.37 938.135 126.565 940.265 124.955C942.42 123.369 943.497 120.705 943.497 116.965V106.986H942.858C942.195 108.501 941.2 109.934 939.875 111.283C938.549 112.633 936.844 113.733 934.761 114.586C932.678 115.438 930.192 115.864 927.304 115.864C923.208 115.864 919.479 114.917 916.117 113.023C912.779 111.106 910.116 108.182 908.127 104.252C906.162 100.298 905.18 95.303 905.18 89.2661C905.18 83.0871 906.186 77.9261 908.198 73.7831C910.211 69.6401 912.886 66.5388 916.224 64.4791C919.586 62.4195 923.267 61.3896 927.268 61.3896C930.322 61.3896 932.879 61.9105 934.939 62.9521C936.998 63.9701 938.655 65.2485 939.91 66.7874C941.189 68.3025 942.171 69.794 942.858 71.2618H943.426V62.0999H958.447V117.178C958.447 121.818 957.311 125.701 955.038 128.826C952.765 131.951 949.617 134.294 945.592 135.857C941.591 137.443 936.986 138.236 931.778 138.236ZM932.098 104.5C934.536 104.5 936.596 103.897 938.277 102.689C939.981 101.458 941.283 99.7064 942.183 97.4337C943.106 95.1373 943.568 92.3911 943.568 89.195C943.568 85.999 943.118 83.2291 942.218 80.8854C941.319 78.518 940.017 76.6832 938.312 75.3811C936.608 74.079 934.536 73.428 932.098 73.428C929.612 73.428 927.517 74.1027 925.812 75.4521C924.108 76.7779 922.817 78.6245 921.941 80.9919C921.065 83.3593 920.627 86.0937 920.627 89.195C920.627 92.3437 921.065 95.0663 921.941 97.3627C922.841 99.6354 924.131 101.399 925.812 102.654C927.517 103.885 929.612 104.5 932.098 104.5Z" fill="white"/>
<path d="M864.75 117.675C861.27 117.675 858.169 117.071 855.446 115.864C852.724 114.633 850.569 112.822 848.983 110.431C847.421 108.016 846.64 105.009 846.64 101.411C846.64 98.3807 847.196 95.8357 848.309 93.776C849.421 91.7164 850.936 90.0592 852.854 88.8044C854.772 87.5497 856.95 86.6027 859.388 85.9635C861.85 85.3243 864.431 84.8745 867.13 84.6141C870.302 84.2826 872.859 83.9749 874.8 83.6908C876.741 83.383 878.15 82.9332 879.026 82.3414C879.902 81.7495 880.34 80.8735 880.34 79.7135V79.5004C880.34 77.2514 879.63 75.5113 878.209 74.2803C876.812 73.0492 874.824 72.4337 872.243 72.4337C869.521 72.4337 867.354 73.0374 865.745 74.2448C864.135 75.4285 863.069 76.92 862.549 78.7192L848.557 77.5828C849.267 74.2684 850.664 71.4038 852.747 68.9891C854.831 66.5506 857.518 64.6804 860.809 63.3783C864.123 62.0525 867.958 61.3896 872.314 61.3896C875.345 61.3896 878.245 61.7448 881.015 62.455C883.808 63.1652 886.282 64.2661 888.436 65.7575C890.614 67.249 892.331 69.1666 893.586 71.5104C894.84 73.8305 895.468 76.6122 895.468 79.8556V116.645H881.121V109.081H880.695C879.819 110.786 878.647 112.289 877.179 113.591C875.712 114.87 873.948 115.876 871.888 116.61C869.828 117.32 867.449 117.675 864.75 117.675ZM869.083 107.235C871.308 107.235 873.273 106.797 874.978 105.921C876.682 105.021 878.02 103.814 878.99 102.299C879.961 100.784 880.446 99.0672 880.446 97.1496V91.3612C879.973 91.669 879.322 91.9531 878.493 92.2135C877.688 92.4503 876.777 92.6752 875.759 92.8882C874.741 93.0776 873.723 93.2552 872.705 93.4209C871.687 93.5629 870.764 93.6931 869.935 93.8115C868.159 94.0719 866.609 94.4862 865.283 95.0544C863.957 95.6226 862.927 96.392 862.194 97.3627C861.46 98.3096 861.093 99.4933 861.093 100.914C861.093 102.973 861.838 104.548 863.33 105.637C864.845 106.702 866.763 107.235 869.083 107.235Z" fill="white"/>
<path d="M757.977 43.918H776.94L796.968 92.7816H797.82L817.849 43.918H836.812V116.645H821.897V69.3086H821.293L802.472 116.29H792.316L773.495 69.131H772.891V116.645H757.977V43.918Z" fill="white"/>
<path d="M670.086 116.645V43.918H698.779C704.295 43.918 708.995 44.9715 712.877 47.0785C716.76 49.1618 719.719 52.0619 721.755 55.7788C723.815 59.4719 724.844 63.7333 724.844 68.5629C724.844 73.3924 723.803 77.6538 721.719 81.3469C719.636 85.0401 716.618 87.9165 712.664 89.9762C708.734 92.0359 703.976 93.0657 698.389 93.0657H680.1V80.7433H695.903C698.862 80.7433 701.3 80.2343 703.218 79.2163C705.159 78.1746 706.603 76.7423 707.55 74.9194C708.521 73.0728 709.006 70.954 709.006 68.5629C709.006 66.1481 708.521 64.0411 707.55 62.2418C706.603 60.4189 705.159 59.0103 703.218 58.016C701.277 56.998 698.815 56.489 695.832 56.489H685.462V116.645H670.086Z" fill="white"/>
<path d="M659.06 69.3798H643.506C643.222 67.3675 642.642 65.5801 641.766 64.0176C640.89 62.4314 639.765 61.082 638.392 59.9693C637.019 58.8566 635.433 58.0043 633.634 57.4125C631.858 56.8206 629.928 56.5247 627.845 56.5247C624.081 56.5247 620.802 57.4598 618.009 59.3301C615.215 61.1767 613.049 63.8755 611.51 67.4267C609.971 70.9541 609.202 75.2392 609.202 80.2818C609.202 85.4664 609.971 89.8225 611.51 93.35C613.072 96.8774 615.25 99.5408 618.044 101.34C620.838 103.139 624.069 104.039 627.739 104.039C629.798 104.039 631.704 103.767 633.456 103.222C635.232 102.678 636.806 101.885 638.179 100.843C639.552 99.7775 640.688 98.4873 641.588 96.9721C642.511 95.457 643.151 93.7288 643.506 91.7875L659.06 91.8585C658.657 95.1966 657.651 98.4163 656.041 101.518C654.455 104.595 652.312 107.353 649.614 109.792C646.938 112.207 643.742 114.124 640.026 115.545C636.332 116.941 632.154 117.64 627.49 117.64C621.003 117.64 615.203 116.172 610.089 113.236C605 110.301 600.975 106.051 598.016 100.488C595.08 94.9243 593.612 88.189 593.612 80.2818C593.612 72.3509 595.104 65.6038 598.087 60.0403C601.07 54.4769 605.118 50.2392 610.232 47.3272C615.345 44.3916 621.098 42.9238 627.49 42.9238C631.704 42.9238 635.61 43.5157 639.209 44.6994C642.831 45.8831 646.039 47.6113 648.832 49.8841C651.626 52.1331 653.899 54.8912 655.651 58.1582C657.426 61.4253 658.562 65.1658 659.06 69.3798Z" fill="white"/>
<path d="M503.387 43.918H522.35L542.378 92.7816H543.23L563.259 43.918H582.222V116.645H567.307V69.3086H566.703L547.882 116.29H537.726L518.905 69.131H518.301V116.645H503.387V43.918Z" fill="white"/>
<path d="M437.504 117.675C434.024 117.675 430.923 117.071 428.2 115.864C425.478 114.633 423.323 112.822 421.737 110.431C420.175 108.016 419.393 105.009 419.393 101.411C419.393 98.3807 419.95 95.8357 421.062 93.776C422.175 91.7164 423.69 90.0592 425.608 88.8044C427.526 87.5497 429.704 86.6027 432.142 85.9635C434.604 85.3243 437.185 84.8745 439.883 84.6141C443.056 84.2826 445.613 83.9749 447.554 83.6908C449.495 83.383 450.904 82.9332 451.78 82.3414C452.656 81.7495 453.094 80.8735 453.094 79.7135V79.5004C453.094 77.2514 452.383 75.5113 450.963 74.2803C449.566 73.0492 447.578 72.4337 444.997 72.4337C442.275 72.4337 440.108 73.0374 438.499 74.2448C436.889 75.4285 435.823 76.92 435.303 78.7192L421.311 77.5828C422.021 74.2684 423.418 71.4038 425.501 68.9891C427.585 66.5506 430.272 64.6804 433.562 63.3783C436.877 62.0525 440.712 61.3896 445.068 61.3896C448.098 61.3896 450.999 61.7448 453.768 62.455C456.562 63.1652 459.036 64.2661 461.19 65.7575C463.368 67.249 465.085 69.1666 466.339 71.5104C467.594 73.8305 468.222 76.6122 468.222 79.8556V116.645H453.875V109.081H453.449C452.573 110.786 451.401 112.289 449.933 113.591C448.465 114.87 446.702 115.876 444.642 116.61C442.582 117.32 440.203 117.675 437.504 117.675ZM441.837 107.235C444.062 107.235 446.027 106.797 447.731 105.921C449.436 105.021 450.774 103.814 451.744 102.299C452.715 100.784 453.2 99.0672 453.2 97.1496V91.3612C452.727 91.669 452.076 91.9531 451.247 92.2135C450.442 92.4503 449.531 92.6752 448.513 92.8882C447.495 93.0776 446.477 93.2552 445.459 93.4209C444.441 93.5629 443.517 93.6931 442.689 93.8115C440.913 94.0719 439.363 94.4862 438.037 95.0544C436.711 95.6226 435.681 96.392 434.947 97.3627C434.214 98.3096 433.847 99.4933 433.847 100.914C433.847 102.973 434.592 104.548 436.084 105.637C437.599 106.702 439.517 107.235 441.837 107.235Z" fill="white"/>
<path d="M330.739 116.645V62.0999H345.157V71.7235H345.796C346.933 68.5274 348.826 66.0061 351.478 64.1595C354.129 62.3129 357.302 61.3896 360.995 61.3896C364.736 61.3896 367.92 62.3248 370.548 64.195C373.175 66.0416 374.927 68.5511 375.803 71.7235H376.371C377.484 68.5985 379.496 66.1008 382.408 64.2306C385.344 62.3366 388.812 61.3896 392.813 61.3896C397.903 61.3896 402.034 63.0113 405.207 66.2547C408.403 69.4744 410.001 74.0435 410.001 79.9621V116.645H394.908V82.945C394.908 79.9147 394.103 77.642 392.494 76.1269C390.884 74.6117 388.871 73.8541 386.457 73.8541C383.71 73.8541 381.568 74.7301 380.029 76.482C378.49 78.2102 377.721 80.4948 377.721 83.3357V116.645H363.055V82.6254C363.055 79.9503 362.285 77.8196 360.746 76.2334C359.231 74.6472 357.231 73.8541 354.745 73.8541C353.064 73.8541 351.549 74.2803 350.2 75.1325C348.874 75.9611 347.82 77.133 347.039 78.6482C346.258 80.1396 345.867 81.8915 345.867 83.9039V116.645H330.739Z" fill="white"/>
<path d="M292.032 138.236C287.131 138.236 282.929 137.562 279.425 136.212C275.945 134.886 273.175 133.075 271.116 130.779C269.056 128.482 267.719 125.902 267.103 123.037L281.094 121.155C281.521 122.244 282.195 123.262 283.119 124.209C284.042 125.156 285.261 125.914 286.776 126.482C288.315 127.074 290.185 127.37 292.387 127.37C295.678 127.37 298.389 126.565 300.519 124.955C302.674 123.369 303.751 120.705 303.751 116.965V106.986H303.112C302.449 108.501 301.454 109.934 300.129 111.283C298.803 112.633 297.098 113.733 295.015 114.586C292.932 115.438 290.446 115.864 287.558 115.864C283.462 115.864 279.733 114.917 276.371 113.023C273.033 111.106 270.37 108.182 268.381 104.252C266.416 100.298 265.434 95.303 265.434 89.2661C265.434 83.0871 266.44 77.9261 268.452 73.7831C270.465 69.6401 273.14 66.5388 276.478 64.4791C279.84 62.4195 283.521 61.3896 287.522 61.3896C290.576 61.3896 293.133 61.9105 295.192 62.9521C297.252 63.9701 298.909 65.2485 300.164 66.7874C301.442 68.3025 302.425 69.794 303.112 71.2618H303.68V62.0999H318.701V117.178C318.701 121.818 317.565 125.701 315.292 128.826C313.019 131.951 309.871 134.294 305.846 135.857C301.845 137.443 297.24 138.236 292.032 138.236ZM292.352 104.5C294.79 104.5 296.85 103.897 298.531 102.689C300.235 101.458 301.537 99.7064 302.437 97.4337C303.36 95.1373 303.822 92.3911 303.822 89.195C303.822 85.999 303.372 83.2291 302.472 80.8854C301.573 78.518 300.271 76.6832 298.566 75.3811C296.862 74.079 294.79 73.428 292.352 73.428C289.866 73.428 287.771 74.1027 286.066 75.4521C284.362 76.7779 283.071 78.6245 282.195 80.9919C281.319 83.3593 280.881 86.0937 280.881 89.195C280.881 92.3437 281.319 95.0663 282.195 97.3627C283.095 99.6354 284.385 101.399 286.066 102.654C287.771 103.885 289.866 104.5 292.352 104.5Z" fill="white"/>
<path d="M240.212 116.646V62.1003H255.34V116.646H240.212ZM247.811 55.0691C245.562 55.0691 243.633 54.3233 242.023 52.8319C240.437 51.3167 239.644 49.5056 239.644 47.3986C239.644 45.3153 240.437 43.5279 242.023 42.0364C243.633 40.5212 245.562 39.7637 247.811 39.7637C250.06 39.7637 251.978 40.5212 253.564 42.0364C255.174 43.5279 255.979 45.3153 255.979 47.3986C255.979 49.5056 255.174 51.3167 253.564 52.8319C251.978 54.3233 250.06 55.0691 247.811 55.0691Z" fill="white"/>
<path d="M182 116.645V43.918H230.153V56.5955H197.376V73.9251H226.957V86.6026H197.376V116.645H182Z" fill="white"/>
</svg>
