<svg width="1057" height="178" viewBox="0 0 1057 178" fill="none" xmlns="http://www.w3.org/2000/svg">
<path fill-rule="evenodd" clip-rule="evenodd" d="M89 24C124.9 24 154 53.1001 154 89.0001C154 124.9 124.9 154 89 154C78.955 154.017 69.0441 151.693 60.0533 147.213C58.6533 146.513 56.5665 146.447 53.3198 147.247C51.6799 147.667 50.0585 148.156 48.4599 148.713L47.8865 148.913C46.4132 149.407 44.82 149.94 43.3267 150.34C33.82 152.887 25.1134 144.18 27.66 134.667C28.06 133.18 28.5933 131.58 29.0866 130.113L29.2866 129.54C29.8438 127.941 30.3331 126.32 30.7532 124.68C31.5466 121.433 31.4798 119.347 30.7865 117.947C26.4399 109.22 24 99.3867 24 89.0001C24 71.761 30.8481 55.2279 43.038 43.038C55.2278 30.8481 71.7609 24 89 24ZM91.956 59.7847C91.4099 59.6135 90.8265 59.6008 90.274 59.7483C89.7216 59.8958 89.2229 60.1972 88.8364 60.6173L61.8743 89.9646C61.5313 90.3374 61.2885 90.791 61.1685 91.2829C61.0484 91.7748 61.0551 92.2892 61.1877 92.7783C61.3203 93.2675 61.5746 93.7154 61.9271 94.0806C62.2796 94.4458 62.7188 94.7163 63.2038 94.867L80.4716 100.257L70.498 116.617C68.1038 120.546 72.6202 125.046 76.5562 122.65L114.165 99.7221C114.905 99.2705 115.499 98.6155 115.875 97.8354C116.251 97.0552 116.394 96.183 116.286 95.3232C116.178 94.4634 115.824 93.6524 115.267 92.9873C114.709 92.3223 113.971 91.8313 113.142 91.5732L104.542 88.889L120.896 73.5071C121.278 73.1475 121.559 72.6941 121.711 72.1922C121.863 71.6902 121.88 71.157 121.762 70.6458C121.643 70.1346 121.392 69.6631 121.034 69.2781C120.676 68.8932 120.224 68.6082 119.722 68.4516L91.956 59.7847Z" fill="white"/>
<path d="M188.321 125.5V52.7727H236.474V65.4503H203.697V82.7798H233.278V95.4574H203.697V125.5H188.321ZM246.533 125.5V70.9545H261.661V125.5H246.533ZM254.132 63.9233C251.883 63.9233 249.954 63.1776 248.344 61.6861C246.758 60.1709 245.965 58.3598 245.965 56.2528C245.965 54.1695 246.758 52.3821 248.344 50.8906C249.954 49.3755 251.883 48.6179 254.132 48.6179C256.382 48.6179 258.299 49.3755 259.885 50.8906C261.495 52.3821 262.3 54.1695 262.3 56.2528C262.3 58.3598 261.495 60.1709 259.885 61.6861C258.299 63.1776 256.382 63.9233 254.132 63.9233ZM298.353 147.091C293.452 147.091 289.25 146.416 285.746 145.067C282.266 143.741 279.496 141.93 277.437 139.634C275.377 137.337 274.04 134.757 273.424 131.892L287.415 130.01C287.842 131.099 288.516 132.117 289.44 133.064C290.363 134.011 291.582 134.768 293.097 135.337C294.636 135.929 296.506 136.224 298.708 136.224C301.999 136.224 304.71 135.42 306.84 133.81C308.995 132.223 310.072 129.56 310.072 125.82V115.841H309.433C308.77 117.356 307.775 118.788 306.45 120.138C305.124 121.487 303.419 122.588 301.336 123.44C299.253 124.293 296.767 124.719 293.879 124.719C289.783 124.719 286.054 123.772 282.692 121.878C279.354 119.96 276.691 117.036 274.702 113.107C272.737 109.153 271.755 104.158 271.755 98.1207C271.755 91.9418 272.761 86.7808 274.773 82.6378C276.786 78.4948 279.461 75.3935 282.799 73.3338C286.161 71.2741 289.842 70.2443 293.843 70.2443C296.897 70.2443 299.454 70.7652 301.513 71.8068C303.573 72.8248 305.23 74.1032 306.485 75.642C307.763 77.1572 308.746 78.6487 309.433 80.1165H310.001V70.9545H325.022V126.033C325.022 130.673 323.886 134.555 321.613 137.68C319.34 140.805 316.192 143.149 312.167 144.712C308.166 146.298 303.561 147.091 298.353 147.091ZM298.673 113.355C301.111 113.355 303.171 112.751 304.852 111.544C306.556 110.313 307.858 108.561 308.758 106.288C309.681 103.992 310.143 101.246 310.143 98.0497C310.143 94.8537 309.693 92.0838 308.793 89.7401C307.894 87.3726 306.592 85.5379 304.887 84.2358C303.183 82.9337 301.111 82.2827 298.673 82.2827C296.187 82.2827 294.092 82.9574 292.387 84.3068C290.683 85.6326 289.392 87.4792 288.516 89.8466C287.64 92.214 287.202 94.9484 287.202 98.0497C287.202 101.198 287.64 103.921 288.516 106.217C289.416 108.49 290.706 110.254 292.387 111.509C294.092 112.74 296.187 113.355 298.673 113.355ZM337.06 125.5V70.9545H351.478V80.5781H352.117C353.254 77.3821 355.147 74.8608 357.799 73.0142C360.451 71.1676 363.623 70.2443 367.316 70.2443C371.057 70.2443 374.241 71.1795 376.869 73.0497C379.496 74.8963 381.248 77.4058 382.124 80.5781H382.692C383.805 77.4531 385.817 74.9555 388.729 73.0852C391.665 71.1913 395.133 70.2443 399.134 70.2443C404.224 70.2443 408.355 71.866 411.528 75.1094C414.724 78.3291 416.322 82.8982 416.322 88.8168V125.5H401.229V91.7997C401.229 88.7694 400.424 86.4967 398.815 84.9815C397.205 83.4664 395.192 82.7088 392.778 82.7088C390.031 82.7088 387.889 83.5848 386.35 85.3366C384.811 87.0649 384.042 89.3494 384.042 92.1903V125.5H369.376V91.4801C369.376 88.8049 368.606 86.6742 367.067 85.0881C365.552 83.5019 363.552 82.7088 361.066 82.7088C359.385 82.7088 357.87 83.1349 356.521 83.9872C355.195 84.8158 354.141 85.9877 353.36 87.5028C352.579 88.9943 352.188 90.7462 352.188 92.7585V125.5H337.06ZM443.825 126.53C440.345 126.53 437.244 125.926 434.521 124.719C431.799 123.488 429.644 121.677 428.058 119.286C426.496 116.871 425.714 113.864 425.714 110.266C425.714 107.235 426.271 104.69 427.384 102.631C428.496 100.571 430.011 98.9138 431.929 97.6591C433.847 96.4044 436.025 95.4574 438.463 94.8182C440.925 94.179 443.506 93.7292 446.205 93.4688C449.377 93.1373 451.934 92.8295 453.875 92.5455C455.816 92.2377 457.225 91.7879 458.101 91.196C458.977 90.6042 459.415 89.7282 459.415 88.5682V88.3551C459.415 86.1061 458.705 84.366 457.284 83.1349C455.887 81.9039 453.899 81.2884 451.318 81.2884C448.596 81.2884 446.429 81.892 444.82 83.0994C443.21 84.2831 442.144 85.7746 441.624 87.5739L427.632 86.4375C428.342 83.1231 429.739 80.2585 431.822 77.8438C433.906 75.4053 436.593 73.535 439.884 72.233C443.198 70.9072 447.033 70.2443 451.389 70.2443C454.42 70.2443 457.32 70.5994 460.089 71.3097C462.883 72.0199 465.357 73.1207 467.511 74.6122C469.689 76.1037 471.406 78.0213 472.661 80.3651C473.915 82.6851 474.543 85.4669 474.543 88.7102V125.5H460.196V117.936H459.77C458.894 119.641 457.722 121.144 456.254 122.446C454.786 123.724 453.023 124.731 450.963 125.464C448.903 126.175 446.524 126.53 443.825 126.53ZM448.158 116.089C450.383 116.089 452.348 115.652 454.053 114.776C455.757 113.876 457.095 112.669 458.065 111.153C459.036 109.638 459.521 107.922 459.521 106.004V100.216C459.048 100.524 458.397 100.808 457.568 101.068C456.763 101.305 455.852 101.53 454.834 101.743C453.816 101.932 452.798 102.11 451.78 102.276C450.762 102.418 449.839 102.548 449.01 102.666C447.234 102.927 445.684 103.341 444.358 103.909C443.032 104.477 442.002 105.247 441.268 106.217C440.535 107.164 440.168 108.348 440.168 109.768C440.168 111.828 440.913 113.402 442.405 114.491C443.92 115.557 445.838 116.089 448.158 116.089ZM509.708 52.7727H528.671L548.699 101.636H549.551L569.58 52.7727H588.543V125.5H573.628V78.1634H573.025L554.203 125.145H544.047L525.226 77.9858H524.623V125.5H509.708V52.7727ZM665.381 78.2344H649.827C649.543 76.2221 648.963 74.4347 648.087 72.8722C647.211 71.286 646.086 69.9366 644.713 68.8239C643.34 67.7112 641.754 66.8589 639.955 66.267C638.179 65.6752 636.25 65.3793 634.166 65.3793C630.402 65.3793 627.123 66.3144 624.33 68.1847C621.536 70.0312 619.37 72.7301 617.831 76.2812C616.292 79.8087 615.523 84.0937 615.523 89.1364C615.523 94.321 616.292 98.6771 617.831 102.205C619.393 105.732 621.571 108.395 624.365 110.195C627.159 111.994 630.39 112.893 634.06 112.893C636.119 112.893 638.025 112.621 639.777 112.077C641.553 111.532 643.127 110.739 644.5 109.697C645.873 108.632 647.009 107.342 647.909 105.827C648.832 104.312 649.472 102.583 649.827 100.642L665.381 100.713C664.978 104.051 663.972 107.271 662.362 110.372C660.776 113.45 658.634 116.208 655.935 118.646C653.259 121.061 650.063 122.979 646.347 124.399C642.653 125.796 638.475 126.494 633.811 126.494C627.324 126.494 621.524 125.027 616.411 122.091C611.321 119.155 607.296 114.906 604.337 109.342C601.401 103.779 599.933 97.0436 599.933 89.1364C599.933 81.2055 601.425 74.4583 604.408 68.8949C607.391 63.3314 611.439 59.0937 616.553 56.1818C621.666 53.2462 627.419 51.7784 633.811 51.7784C638.025 51.7784 641.931 52.3703 645.53 53.554C649.152 54.7377 652.36 56.4659 655.153 58.7386C657.947 60.9877 660.22 63.7457 661.972 67.0128C663.747 70.2798 664.884 74.0204 665.381 78.2344ZM676.407 125.5V52.7727H705.1C710.616 52.7727 715.316 53.8262 719.198 55.9332C723.081 58.0166 726.04 60.9167 728.076 64.6335C730.136 68.3267 731.165 72.5881 731.165 77.4176C731.165 82.2472 730.124 86.5085 728.04 90.2017C725.957 93.8949 722.939 96.7713 718.985 98.831C715.055 100.891 710.297 101.92 704.71 101.92H686.421V89.598H702.224C705.183 89.598 707.621 89.089 709.539 88.071C711.48 87.0294 712.924 85.5971 713.871 83.7741C714.842 81.9276 715.327 79.8087 715.327 77.4176C715.327 75.0028 714.842 72.8958 713.871 71.0966C712.924 69.2737 711.48 67.8651 709.539 66.8707C707.598 65.8527 705.136 65.3438 702.153 65.3438H691.783V125.5H676.407ZM764.298 52.7727H783.261L803.289 101.636H804.141L824.17 52.7727H843.133V125.5H828.218V78.1634H827.614L808.793 125.145H798.637L779.816 77.9858H779.212V125.5H764.298V52.7727ZM871.071 126.53C867.591 126.53 864.49 125.926 861.767 124.719C859.045 123.488 856.891 121.677 855.304 119.286C853.742 116.871 852.961 113.864 852.961 110.266C852.961 107.235 853.517 104.69 854.63 102.631C855.742 100.571 857.257 98.9138 859.175 97.6591C861.093 96.4044 863.271 95.4574 865.709 94.8182C868.171 94.179 870.752 93.7292 873.451 93.4688C876.623 93.1373 879.18 92.8295 881.121 92.5455C883.062 92.2377 884.471 91.7879 885.347 91.196C886.223 90.6042 886.661 89.7282 886.661 88.5682V88.3551C886.661 86.1061 885.951 84.366 884.53 83.1349C883.133 81.9039 881.145 81.2884 878.564 81.2884C875.842 81.2884 873.676 81.892 872.066 83.0994C870.456 84.2831 869.391 85.7746 868.87 87.5739L854.878 86.4375C855.588 83.1231 856.985 80.2585 859.069 77.8438C861.152 75.4053 863.839 73.535 867.13 72.233C870.444 70.9072 874.279 70.2443 878.635 70.2443C881.666 70.2443 884.566 70.5994 887.336 71.3097C890.129 72.0199 892.603 73.1207 894.757 74.6122C896.935 76.1037 898.652 78.0213 899.907 80.3651C901.161 82.6851 901.789 85.4669 901.789 88.7102V125.5H887.442V117.936H887.016C886.14 119.641 884.968 121.144 883.5 122.446C882.033 123.724 880.269 124.731 878.209 125.464C876.15 126.175 873.77 126.53 871.071 126.53ZM875.404 116.089C877.629 116.089 879.594 115.652 881.299 114.776C883.003 113.876 884.341 112.669 885.311 111.153C886.282 109.638 886.767 107.922 886.767 106.004V100.216C886.294 100.524 885.643 100.808 884.814 101.068C884.009 101.305 883.098 101.53 882.08 101.743C881.062 101.932 880.044 102.11 879.026 102.276C878.008 102.418 877.085 102.548 876.256 102.666C874.48 102.927 872.93 103.341 871.604 103.909C870.278 104.477 869.248 105.247 868.515 106.217C867.781 107.164 867.414 108.348 867.414 109.768C867.414 111.828 868.159 113.402 869.651 114.491C871.166 115.557 873.084 116.089 875.404 116.089ZM938.099 147.091C933.199 147.091 928.996 146.416 925.493 145.067C922.012 143.741 919.243 141.93 917.183 139.634C915.123 137.337 913.786 134.757 913.17 131.892L927.162 130.01C927.588 131.099 928.262 132.117 929.186 133.064C930.109 134.011 931.328 134.768 932.843 135.337C934.382 135.929 936.252 136.224 938.454 136.224C941.745 136.224 944.456 135.42 946.586 133.81C948.741 132.223 949.818 129.56 949.818 125.82V115.841H949.179C948.516 117.356 947.521 118.788 946.196 120.138C944.87 121.487 943.165 122.588 941.082 123.44C938.999 124.293 936.513 124.719 933.625 124.719C929.529 124.719 925.8 123.772 922.439 121.878C919.1 119.96 916.437 117.036 914.449 113.107C912.484 109.153 911.501 104.158 911.501 98.1207C911.501 91.9418 912.507 86.7808 914.52 82.6378C916.532 78.4948 919.207 75.3935 922.545 73.3338C925.907 71.2741 929.588 70.2443 933.589 70.2443C936.643 70.2443 939.2 70.7652 941.26 71.8068C943.319 72.8248 944.976 74.1032 946.231 75.642C947.51 77.1572 948.492 78.6487 949.179 80.1165H949.747V70.9545H964.768V126.033C964.768 130.673 963.632 134.555 961.359 137.68C959.086 140.805 955.938 143.149 951.913 144.712C947.912 146.298 943.307 147.091 938.099 147.091ZM938.419 113.355C940.857 113.355 942.917 112.751 944.598 111.544C946.302 110.313 947.604 108.561 948.504 106.288C949.427 103.992 949.889 101.246 949.889 98.0497C949.889 94.8537 949.439 92.0838 948.539 89.7401C947.64 87.3726 946.338 85.5379 944.633 84.2358C942.929 82.9337 940.857 82.2827 938.419 82.2827C935.933 82.2827 933.838 82.9574 932.133 84.3068C930.429 85.6326 929.138 87.4792 928.262 89.8466C927.386 92.214 926.949 94.9484 926.949 98.0497C926.949 101.198 927.386 103.921 928.262 106.217C929.162 108.49 930.452 110.254 932.133 111.509C933.838 112.74 935.933 113.355 938.419 113.355ZM976.806 125.5V70.9545H991.934V125.5H976.806ZM984.406 63.9233C982.157 63.9233 980.227 63.1776 978.618 61.6861C977.031 60.1709 976.238 58.3598 976.238 56.2528C976.238 54.1695 977.031 52.3821 978.618 50.8906C980.227 49.3755 982.157 48.6179 984.406 48.6179C986.655 48.6179 988.573 49.3755 990.159 50.8906C991.769 52.3821 992.574 54.1695 992.574 56.2528C992.574 58.3598 991.769 60.1709 990.159 61.6861C988.573 63.1776 986.655 63.9233 984.406 63.9233ZM1028.7 126.565C1023.11 126.565 1018.3 125.382 1014.28 123.014C1010.28 120.623 1007.2 117.309 1005.05 113.071C1002.92 108.833 1001.85 103.956 1001.85 98.4403C1001.85 92.8532 1002.93 87.9527 1005.08 83.7386C1007.26 79.5009 1010.35 76.1984 1014.35 73.831C1018.35 71.4399 1023.11 70.2443 1028.63 70.2443C1033.38 70.2443 1037.55 71.1084 1041.13 72.8366C1044.7 74.5649 1047.53 76.9915 1049.61 80.1165C1051.7 83.2415 1052.85 86.911 1053.06 91.125H1038.78C1038.38 88.4025 1037.31 86.2126 1035.59 84.5554C1033.88 82.8745 1031.64 82.0341 1028.88 82.0341C1026.53 82.0341 1024.48 82.6733 1022.73 83.9517C1021 85.2064 1019.65 87.0412 1018.68 89.456C1017.71 91.8707 1017.23 94.7945 1017.23 98.2273C1017.23 101.707 1017.7 104.667 1018.65 107.105C1019.62 109.544 1020.98 111.402 1022.73 112.68C1024.48 113.959 1026.53 114.598 1028.88 114.598C1030.6 114.598 1032.15 114.243 1033.53 113.533C1034.92 112.822 1036.07 111.793 1036.97 110.443C1037.89 109.07 1038.5 107.425 1038.78 105.507H1053.06C1052.82 109.674 1051.69 113.343 1049.65 116.516C1047.64 119.664 1044.86 122.126 1041.3 123.902C1037.75 125.678 1033.55 126.565 1028.7 126.565Z" fill="white"/>
</svg>
